<svg xmlns="http://www.w3.org/2000/svg" xmlns:xlink="http://www.w3.org/1999/xlink">
  <defs>
    <symbol id="arrow-foward" viewBox="0 0 768 768">
      <path fill="currentColor"
        d="M384 127.5l256.5 256.5-256.5 256.5-45-45 178.5-180h-390v-63h390l-178.5-180z"></path>
    </symbol>
    <symbol id="members" viewBox="0 0 768 768">
      <path fill="currentColor"
        d="M511.5 127.5q0-25.5 18.75-44.25t45.75-18.75 45.75 18.75 18.75 44.25q0 27-18.75 45.75t-45.75 18.75-45.75-18.75-18.75-45.75zM640.5 703.5v-192h79.5l-81-243q-7.5-21-24-33t-37.5-12h-3q-21 0-37.5 12t-24 33l-27 82.5q25.5 13.5 42 39.75t16.5 57.75v255h96zM400.5 367.5q19.5 0 33.75-13.5t14.25-34.5q0-19.5-14.25-33.75t-33.75-14.25q-21 0-34.5 14.25t-13.5 33.75q0 21 13.5 34.5t34.5 13.5zM175.5 192q27 0 45.75-18.75t18.75-45.75q0-25.5-18.75-44.25t-45.75-18.75q-25.5 0-44.25 18.75t-18.75 44.25q0 27 18.75 45.75t44.25 18.75zM240 703.5v-223.5h48v-192q0-27-18.75-45.75t-45.75-18.75h-96q-25.5 0-44.25 18.75t-18.75 45.75v192h48v223.5h127.5zM448.5 703.5v-127.5h31.5v-127.5q0-19.5-14.25-33.75t-33.75-14.25h-64.5q-19.5 0-33.75 14.25t-14.25 33.75v127.5h33v127.5h96z"></path>
    </symbol>
    <symbol id="repo" viewBox="0 0 16 16">
      <path
        fill="currentColor"
        d="M2 2.5A2.5 2.5 0 0 1 4.5 0h8.75a.75.75 0 0 1 .75.75v12.5a.75.75 0 0 1-.75.75h-2.5a.75.75 0 0 1 0-1.5h1.75v-2h-8a1 1 0 0 0-.714 1.7.75.75 0 1 1-1.072 1.05A2.495 2.495 0 0 1 2 11.5Zm10.5-1h-8a1 1 0 0 0-1 1v6.708A2.486 2.486 0 0 1 4.5 9h8ZM5 12.25a.25.25 0 0 1 .25-.25h3.5a.25.25 0 0 1 .25.25v3.25a.25.25 0 0 1-.4.2l-1.45-1.087a.249.249 0 0 0-.3 0L5.4 15.7a.25.25 0 0 1-.4-.2Z"></path>
    </symbol>
    <symbol id="star" viewBox="0 0 16 16">
      <path
        fill="currentColor"
        d="M8 .25a.75.75 0 0 1 .673.418l1.882 3.815 4.21.612a.75.75 0 0 1 .416 1.279l-3.046 2.97.719 4.192a.751.751 0 0 1-1.088.791L8 12.347l-3.766 1.98a.75.75 0 0 1-1.088-.79l.72-4.194L.818 6.374a.75.75 0 0 1 .416-1.28l4.21-.611L7.327.668A.75.75 0 0 1 8 .25Zm0 2.445L6.615 5.5a.75.75 0 0 1-.564.41l-3.097.45 2.24 2.184a.75.75 0 0 1 .216.664l-.528 3.084 2.769-1.456a.75.75 0 0 1 .698 0l2.77 1.456-.53-3.084a.75.75 0 0 1 .216-.664l2.24-2.183-3.096-.45a.75.75 0 0 1-.564-.41L8 2.694Z"></path>
    </symbol>
    <symbol id="followers" viewBox="0 0 16 16">
      <path
        fill="currentColor"
        d="M2 5.5a3.5 3.5 0 1 1 5.898 2.549 5.508 5.508 0 0 1 3.034 4.084.75.75 0 1 1-1.482.235 4 4 0 0 0-7.9 0 .75.75 0 0 1-1.482-.236A5.507 5.507 0 0 1 3.102 8.05 3.493 3.493 0 0 1 2 5.5ZM11 4a3.001 3.001 0 0 1 2.22 5.018 5.01 5.01 0 0 1 2.56 3.012.749.749 0 0 1-.885.954.752.752 0 0 1-.549-.514 3.507 3.507 0 0 0-2.522-2.372.75.75 0 0 1-.574-.73v-.352a.75.75 0 0 1 .416-.672A1.5 1.5 0 0 0 11 5.5.75.75 0 0 1 11 4Zm-5.5-.5a2 2 0 1 0-.001 3.999A2 2 0 0 0 5.5 3.5Z"></path>
    </symbol>
    <symbol id="email" viewBox="0 0 768 768">
      <path fill="currentColor"
        d="M96 253.472l269.664 188.768c10.88 7.52 25.44 7.872 36.704 0l269.632-188.768v322.528c0 8.704-3.52 16.672-9.44 22.56s-13.856 9.44-22.56 9.44h-512c-8.704 0-16.672-3.52-22.56-9.44s-9.44-13.856-9.44-22.56zM32 191.456c0 0.32 0 0.64 0 0.96v383.584c0 26.496 10.88 50.528 28.16 67.84s41.344 28.16 67.84 28.16h512c26.496 0 50.528-10.88 67.84-28.16s28.16-41.344 28.16-67.84v-383.616c0-0.32 0-0.64 0-0.96-0.16-26.272-10.976-50.080-28.16-67.264-17.312-17.28-41.344-28.16-67.84-28.16h-512c-26.496 0-50.528 10.88-67.84 28.16-17.184 17.184-28 40.992-28.16 67.296zM668.608 177.728l-284.608 199.2-284.608-199.2c1.536-3.072 3.584-5.856 6.016-8.288 5.92-5.92 13.888-9.44 22.592-9.44h512c8.704 0 16.672 3.52 22.56 9.44 2.432 2.432 4.48 5.248 6.016 8.288z"></path>
    </symbol>
    <symbol id="sort" viewBox="0 0 512 512">
      <path fill="currentColor"
        d="M224 192v-96h-64l96-96 96 96h-64v96zM288 320v96h64l-96 96-96-96h64v-96z"></path>
    </symbol>
  </defs>
</svg>